<?xml version="1.0" encoding="utf-8"?>
<!-- Generator: Adobe Illustrator 24.1.3, SVG Export Plug-In . SVG Version: 6.00 Build 0)  -->
<svg version="1.1" id="Layer_1" xmlns="http://www.w3.org/2000/svg" xmlns:xlink="http://www.w3.org/1999/xlink" x="0px" y="0px"
	 viewBox="0 0 300 90" style="enable-background:new 0 0 300 90;" xml:space="preserve">
<style type="text/css">
	.st0{fill:none;}
	.st1{fill:#1A4E79;}
	.st2{fill:#2376B6;}
	.st3{fill:url(#SVGID_1_);}
	.st4{fill:url(#SVGID_2_);}
	.st5{fill:url(#SVGID_3_);}
	.st6{fill:url(#SVGID_4_);}
	.st7{fill:url(#SVGID_5_);}
	.st8{fill:url(#SVGID_6_);}
	.st9{fill:url(#SVGID_7_);}
	.st10{fill:url(#SVGID_8_);}
	.st11{fill:url(#SVGID_9_);}
	.st12{fill:url(#SVGID_10_);}
	.st13{fill:url(#SVGID_11_);}
	.st14{fill:url(#SVGID_12_);}
	.st15{fill:url(#SVGID_13_);}
	.st16{fill:url(#SVGID_14_);}
	.st17{fill:url(#SVGID_15_);}
	.st18{fill:url(#SVGID_16_);}
	.st19{fill:url(#SVGID_17_);}
	.st20{fill:url(#SVGID_18_);}
	.st21{fill:url(#SVGID_19_);}
	.st22{fill:url(#SVGID_20_);}
	.st23{fill:url(#SVGID_21_);}
	.st24{fill:url(#SVGID_22_);}
	.st25{fill:url(#SVGID_23_);}
	.st26{fill:url(#SVGID_24_);}
	.st27{fill:url(#SVGID_25_);}
	.st28{fill:url(#SVGID_26_);}
	.st29{fill:url(#SVGID_27_);}
	.st30{fill:url(#SVGID_28_);}
	.st31{fill:url(#SVGID_29_);}
</style>
<pattern  width="28.73" height="28.73" patternUnits="userSpaceOnUse" id="New_Pattern_Swatch_2" viewBox="0 -28.73 28.73 28.73" style="overflow:visible;">
	<g>
		<rect y="-28.73" class="st0" width="28.73" height="28.73"/>
		<rect y="-28.73" class="st1" width="28.73" height="28.73"/>
	</g>
</pattern>
<pattern  width="28.73" height="28.73" patternUnits="userSpaceOnUse" id="New_Pattern_Swatch_4" viewBox="0 -28.73 28.73 28.73" style="overflow:visible;">
	<g>
		<rect y="-28.73" class="st0" width="28.73" height="28.73"/>
		<rect y="-28.73" class="st2" width="28.73" height="28.73"/>
	</g>
</pattern>
<g>
	<pattern  id="SVGID_1_" xlink:href="#New_Pattern_Swatch_2" patternTransform="matrix(0.3871 0 0 0.3871 -4750.2578 -11641.1572)">
	</pattern>
	<path class="st3" d="M37.73,59.99l-9.51-9.3v-2.76c2.16-0.93,3.68-3.08,3.68-5.57c0-3.34-2.72-6.06-6.06-6.06
		c-3.34,0-6.06,2.72-6.06,6.06c0,2.47,1.49,4.6,3.61,5.54v4.82l10.96,10.72c0.47,0.46,1.08,0.69,1.69,0.69
		c0.63,0,1.25-0.24,1.73-0.73C38.71,62.45,38.69,60.92,37.73,59.99z M25.84,39.62c1.51,0,2.74,1.23,2.74,2.74
		c0,1.4-1.07,2.55-2.43,2.71c-0.11-0.02-0.22-0.03-0.34-0.03c-0.11,0-0.21,0.02-0.31,0.03c-1.35-0.17-2.4-1.31-2.4-2.71
		C23.1,40.85,24.33,39.62,25.84,39.62z"/>
	<pattern  id="SVGID_2_" xlink:href="#New_Pattern_Swatch_4" patternTransform="matrix(0.3717 0 0 0.3717 -4541.5962 -11372.7451)">
	</pattern>
	<path class="st4" d="M79.79,47.37L73.8,35.79c-0.16-9.42-3.93-18.22-10.65-24.85C56.28,4.17,47.17,0.49,37.52,0.65
		c-19.18,0.27-35,16.09-35.26,35.26c-0.26,18.7,14.11,34.58,32.72,36.16c1.43,0.12,2.86-0.37,3.92-1.34
		c1.06-0.97,1.67-2.36,1.67-3.8V53c0.03-0.02,0.06-0.04,0.08-0.06l12.42-11.26v-5.55c2.25-0.98,3.83-3.22,3.83-5.83
		c0-3.51-2.85-6.36-6.36-6.36c-3.51,0-6.36,2.85-6.36,6.36c0,2.61,1.58,4.85,3.83,5.83v3.31l-7.43,6.74V24.5c0-0.01,0-0.03,0-0.04
		c2.16-1.02,3.66-3.21,3.66-5.75c0-3.51-2.85-6.36-6.36-6.36c-3.51,0-6.36,2.85-6.36,6.36c0,2.67,1.66,4.96,3.99,5.9v42.32
		l-0.09,0.09C19.43,65.66,7.1,52.03,7.33,35.98C7.55,19.52,21.13,5.95,37.59,5.72c8.29-0.09,16.1,3.02,22,8.84
		c5.9,5.82,9.15,13.58,9.15,21.86v0.62l6.01,11.63h-4.1c-2.73,0-4.96,2.22-4.96,4.96v11.99c0,3.67-2.99,6.66-6.65,6.66l-3.37-0.01
		c-4.28,0-7.75,3.48-7.75,7.75v6.91c0,1.4,1.14,2.54,2.54,2.54c1.4,0,2.54-1.14,2.54-2.54v-6.91c0-1.48,1.2-2.68,2.67-2.68
		l3.37,0.01c6.47,0,11.73-5.26,11.73-11.73V53.74h5.15c1.53,0,2.93-0.78,3.72-2.09C80.44,50.33,80.49,48.74,79.79,47.37z
		 M47.66,30.3c0-1.59,1.29-2.88,2.88-2.88s2.88,1.29,2.88,2.88c0,1.59-1.29,2.88-2.88,2.88S47.66,31.88,47.66,30.3z M34.98,18.71
		c0-1.59,1.29-2.88,2.88-2.88c1.59,0,2.88,1.29,2.88,2.88c0,1.59-1.29,2.88-2.88,2.88C36.27,21.59,34.98,20.3,34.98,18.71z"/>
	<g>
		
			<pattern  id="SVGID_3_" xlink:href="#New_Pattern_Swatch_2" patternTransform="matrix(0.3717 0 0 0.3717 -4541.5962 -11372.7451)">
		</pattern>
		<path class="st5" d="M109.55,10.4c0.41,0,0.62,0.21,0.62,0.62v2.75c0,0.43-0.21,0.65-0.62,0.65H97.06c-0.73,0-1.33,0.06-1.81,0.18
			c-0.48,0.12-0.86,0.33-1.14,0.62c-0.28,0.29-0.48,0.68-0.6,1.16c-0.12,0.49-0.18,1.1-0.18,1.85v3.98c0,0.75,0.06,1.37,0.18,1.87
			c0.12,0.5,0.32,0.89,0.6,1.18c0.28,0.29,0.66,0.5,1.14,0.62c0.48,0.12,1.08,0.18,1.81,0.18h12.49c0.41,0,0.62,0.21,0.62,0.62v2.75
			c0,0.41-0.21,0.62-0.62,0.62H96.89c-1.42,0-2.63-0.13-3.62-0.39c-0.99-0.26-1.8-0.69-2.43-1.28c-0.63-0.59-1.09-1.36-1.37-2.3
			c-0.29-0.94-0.44-2.09-0.44-3.44v-4.83c0-1.35,0.14-2.49,0.44-3.42c0.29-0.94,0.75-1.7,1.37-2.29c0.63-0.59,1.44-1.02,2.43-1.29
			c0.99-0.27,2.2-0.41,3.62-0.41H109.55z"/>
		
			<pattern  id="SVGID_4_" xlink:href="#New_Pattern_Swatch_2" patternTransform="matrix(0.3717 0 0 0.3717 -4541.5962 -11372.7451)">
		</pattern>
		<path class="st6" d="M127.14,10.4c1.52,0,2.82,0.15,3.9,0.46c1.08,0.31,1.97,0.79,2.67,1.43c0.69,0.65,1.2,1.47,1.53,2.47
			c0.33,1,0.49,2.18,0.49,3.55v3.82c0,1.37-0.16,2.55-0.49,3.55c-0.33,1-0.84,1.82-1.53,2.47c-0.69,0.65-1.58,1.12-2.67,1.43
			c-1.08,0.31-2.38,0.46-3.9,0.46h-13.13c-0.56,0-0.84-0.28-0.84-0.84V11.24c0-0.56,0.28-0.84,0.84-0.84H127.14z M117.46,25.78
			c0,0.24,0.12,0.37,0.36,0.37h9.2c0.82,0,1.51-0.07,2.08-0.22c0.56-0.15,1.01-0.39,1.36-0.73c0.35-0.34,0.59-0.79,0.74-1.35
			c0.15-0.56,0.22-1.25,0.22-2.08v-3.09c0-0.82-0.07-1.52-0.22-2.08c-0.15-0.56-0.4-1.01-0.74-1.35c-0.35-0.34-0.8-0.58-1.36-0.73
			c-0.56-0.15-1.25-0.22-2.08-0.22h-9.2c-0.24,0-0.36,0.13-0.36,0.39V25.78z"/>
		
			<pattern  id="SVGID_5_" xlink:href="#New_Pattern_Swatch_2" patternTransform="matrix(0.3717 0 0 0.3717 -4541.5962 -11372.7451)">
		</pattern>
		<path class="st7" d="M142.85,10.4c0.41,0,0.62,0.21,0.62,0.62v11.2c0,0.75,0.06,1.37,0.18,1.87c0.12,0.5,0.32,0.89,0.6,1.18
			c0.28,0.29,0.66,0.5,1.14,0.62c0.48,0.12,1.08,0.18,1.81,0.18h11.36c0.41,0,0.62,0.21,0.62,0.62v2.75c0,0.41-0.21,0.62-0.62,0.62
			h-11.53c-1.42,0-2.63-0.13-3.62-0.39c-0.99-0.26-1.8-0.69-2.43-1.28c-0.63-0.59-1.09-1.36-1.37-2.3
			c-0.29-0.94-0.44-2.09-0.44-3.44V11.02c0-0.41,0.22-0.62,0.65-0.62H142.85z"/>
	</g>
	<g>
		
			<pattern  id="SVGID_6_" xlink:href="#New_Pattern_Swatch_2" patternTransform="matrix(0.3717 0 0 0.3717 -4541.5962 -11372.7451)">
		</pattern>
		<path class="st8" d="M108.76,42.92c0.41,0,0.62,0.21,0.62,0.62v2.67c0,0.41-0.21,0.62-0.62,0.62H94.7c-0.54,0-0.93,0.14-1.15,0.42
			c-0.22,0.28-0.34,0.66-0.34,1.15v0.95c0,1.05,0.49,1.57,1.46,1.57h10.52c1.63,0,2.85,0.42,3.68,1.25
			c0.82,0.83,1.23,2.02,1.23,3.58v2.24c0,1.37-0.4,2.47-1.21,3.31c-0.8,0.84-2.06,1.26-3.76,1.26H89.6c-0.43,0-0.64-0.21-0.64-0.62
			v-2.67c0-0.41,0.21-0.62,0.64-0.62h14.73c0.54,0,0.93-0.14,1.15-0.42c0.22-0.28,0.34-0.66,0.34-1.15v-1.15
			c0-1.05-0.49-1.57-1.46-1.57H93.83c-1.63,0-2.85-0.42-3.68-1.25c-0.82-0.83-1.23-2.02-1.23-3.58V47.5c0-1.37,0.4-2.47,1.21-3.31
			c0.8-0.84,2.06-1.26,3.76-1.26H108.76z"/>
		
			<pattern  id="SVGID_7_" xlink:href="#New_Pattern_Swatch_2" patternTransform="matrix(0.3717 0 0 0.3717 -4541.5962 -11372.7451)">
		</pattern>
		<path class="st9" d="M129.61,42.92c1.42,0,2.63,0.14,3.63,0.41c1,0.27,1.81,0.7,2.44,1.29c0.63,0.59,1.08,1.35,1.36,2.29
			s0.42,2.08,0.42,3.42v4.83c0,1.35-0.14,2.49-0.42,3.44c-0.28,0.94-0.73,1.71-1.36,2.3c-0.63,0.59-1.44,1.01-2.44,1.28
			c-1,0.26-2.21,0.39-3.63,0.39h-8.67c-1.42,0-2.63-0.13-3.62-0.39c-0.99-0.26-1.8-0.69-2.43-1.28c-0.63-0.59-1.09-1.36-1.37-2.3
			c-0.29-0.94-0.44-2.09-0.44-3.44v-4.83c0-1.35,0.14-2.49,0.44-3.42c0.29-0.94,0.75-1.7,1.37-2.29c0.63-0.59,1.44-1.02,2.43-1.29
			c0.99-0.27,2.2-0.41,3.62-0.41H129.61z M117.37,54.85c0,0.73,0.06,1.34,0.18,1.84c0.12,0.5,0.32,0.89,0.6,1.18
			c0.28,0.29,0.66,0.5,1.14,0.62c0.48,0.12,1.08,0.18,1.81,0.18h8.33c0.73,0,1.33-0.06,1.81-0.18c0.48-0.12,0.86-0.33,1.14-0.62
			c0.28-0.29,0.48-0.68,0.6-1.18c0.12-0.5,0.18-1.11,0.18-1.84v-4.21c0-0.73-0.06-1.34-0.18-1.84c-0.12-0.5-0.32-0.89-0.6-1.18
			c-0.28-0.29-0.66-0.5-1.14-0.62c-0.48-0.12-1.08-0.18-1.81-0.18h-8.33c-0.73,0-1.33,0.06-1.81,0.18
			c-0.48,0.12-0.86,0.33-1.14,0.62c-0.28,0.29-0.48,0.68-0.6,1.18c-0.12,0.5-0.18,1.11-0.18,1.84V54.85z"/>
		
			<pattern  id="SVGID_8_" xlink:href="#New_Pattern_Swatch_2" patternTransform="matrix(0.3717 0 0 0.3717 -4541.5962 -11372.7451)">
		</pattern>
		<path class="st10" d="M144.56,42.92c0.41,0,0.62,0.21,0.62,0.62v11.2c0,0.75,0.06,1.37,0.18,1.87c0.12,0.5,0.32,0.89,0.6,1.18
			c0.28,0.29,0.66,0.5,1.14,0.62c0.48,0.12,1.08,0.18,1.81,0.18h11.36c0.41,0,0.62,0.21,0.62,0.62v2.75c0,0.41-0.21,0.62-0.62,0.62
			h-11.53c-1.42,0-2.63-0.13-3.62-0.39c-0.99-0.26-1.8-0.69-2.43-1.28c-0.63-0.59-1.09-1.36-1.37-2.3
			c-0.29-0.94-0.44-2.09-0.44-3.44V43.54c0-0.41,0.22-0.62,0.65-0.62H144.56z"/>
		
			<pattern  id="SVGID_9_" xlink:href="#New_Pattern_Swatch_2" patternTransform="matrix(0.3717 0 0 0.3717 -4541.5962 -11372.7451)">
		</pattern>
		<path class="st11" d="M166.87,42.92c0.41,0,0.62,0.21,0.62,0.62v11.2c0,0.75,0.06,1.37,0.18,1.87c0.12,0.5,0.32,0.89,0.6,1.18
			c0.28,0.29,0.66,0.5,1.14,0.62c0.48,0.12,1.08,0.18,1.81,0.18h7.77c0.73,0,1.33-0.06,1.81-0.18c0.48-0.12,0.86-0.33,1.14-0.62
			c0.28-0.29,0.48-0.68,0.59-1.18c0.11-0.49,0.17-1.12,0.17-1.87v-11.2c0-0.41,0.21-0.62,0.62-0.62h3.06c0.41,0,0.62,0.21,0.62,0.62
			v11.62c0,1.35-0.14,2.49-0.42,3.44c-0.28,0.94-0.73,1.71-1.36,2.3c-0.63,0.59-1.44,1.01-2.44,1.28c-1,0.26-2.21,0.39-3.63,0.39
			h-8.08c-1.42,0-2.63-0.13-3.62-0.39c-0.99-0.26-1.8-0.69-2.43-1.28c-0.63-0.59-1.09-1.36-1.37-2.3c-0.29-0.94-0.44-2.09-0.44-3.44
			V43.54c0-0.41,0.22-0.62,0.65-0.62H166.87z"/>
		
			<pattern  id="SVGID_10_" xlink:href="#New_Pattern_Swatch_2" patternTransform="matrix(0.3717 0 0 0.3717 -4541.5962 -11372.7451)">
		</pattern>
		<path class="st12" d="M211.7,42.92c0.43,0,0.64,0.21,0.64,0.62v2.75c0,0.43-0.21,0.65-0.64,0.65h-8.81v15.01
			c0,0.41-0.21,0.62-0.62,0.62h-3.06c-0.41,0-0.62-0.21-0.62-0.62V46.94h-8.81c-0.43,0-0.65-0.21-0.65-0.65v-2.75
			c0-0.41,0.21-0.62,0.65-0.62H211.7z"/>
		
			<pattern  id="SVGID_11_" xlink:href="#New_Pattern_Swatch_2" patternTransform="matrix(0.3717 0 0 0.3717 -4541.5962 -11372.7451)">
		</pattern>
		<path class="st13" d="M218.52,42.92c0.41,0,0.62,0.21,0.62,0.62v18.41c0,0.41-0.21,0.62-0.62,0.62h-3.03
			c-0.43,0-0.65-0.21-0.65-0.62V43.54c0-0.41,0.21-0.62,0.65-0.62H218.52z"/>
		
			<pattern  id="SVGID_12_" xlink:href="#New_Pattern_Swatch_2" patternTransform="matrix(0.3717 0 0 0.3717 -4541.5962 -11372.7451)">
		</pattern>
		<path class="st14" d="M239.17,42.92c1.42,0,2.63,0.14,3.63,0.41c1,0.27,1.81,0.7,2.44,1.29c0.63,0.59,1.08,1.35,1.36,2.29
			c0.28,0.94,0.42,2.08,0.42,3.42v4.83c0,1.35-0.14,2.49-0.42,3.44c-0.28,0.94-0.73,1.71-1.36,2.3c-0.63,0.59-1.44,1.01-2.44,1.28
			c-1,0.26-2.21,0.39-3.63,0.39h-8.67c-1.42,0-2.63-0.13-3.62-0.39c-0.99-0.26-1.8-0.69-2.43-1.28c-0.63-0.59-1.09-1.36-1.37-2.3
			c-0.29-0.94-0.44-2.09-0.44-3.44v-4.83c0-1.35,0.14-2.49,0.44-3.42c0.29-0.94,0.75-1.7,1.37-2.29c0.63-0.59,1.44-1.02,2.43-1.29
			c0.99-0.27,2.2-0.41,3.62-0.41H239.17z M226.94,54.85c0,0.73,0.06,1.34,0.18,1.84c0.12,0.5,0.32,0.89,0.6,1.18
			c0.28,0.29,0.66,0.5,1.14,0.62c0.48,0.12,1.08,0.18,1.81,0.18H239c0.73,0,1.33-0.06,1.81-0.18c0.48-0.12,0.86-0.33,1.14-0.62
			c0.28-0.29,0.48-0.68,0.6-1.18c0.12-0.5,0.18-1.11,0.18-1.84v-4.21c0-0.73-0.06-1.34-0.18-1.84c-0.12-0.5-0.32-0.89-0.6-1.18
			c-0.28-0.29-0.66-0.5-1.14-0.62c-0.48-0.12-1.08-0.18-1.81-0.18h-8.33c-0.73,0-1.33,0.06-1.81,0.18
			c-0.48,0.12-0.86,0.33-1.14,0.62c-0.28,0.29-0.48,0.68-0.6,1.18c-0.12,0.5-0.18,1.11-0.18,1.84V54.85z"/>
		
			<pattern  id="SVGID_13_" xlink:href="#New_Pattern_Swatch_2" patternTransform="matrix(0.3717 0 0 0.3717 -4541.5962 -11372.7451)">
		</pattern>
		<path class="st15" d="M255.5,42.92c0.45,0,0.82,0.02,1.12,0.06c0.3,0.04,0.56,0.12,0.79,0.24c0.22,0.12,0.44,0.29,0.64,0.51
			c0.21,0.22,0.44,0.5,0.7,0.86l10.44,13.69c0.07,0.13,0.2,0.2,0.37,0.2h0.25c0.15,0,0.22-0.09,0.22-0.28V43.54
			c0-0.41,0.21-0.62,0.62-0.62h2.95c0.41,0,0.62,0.21,0.62,0.62v16.1c0,1.14-0.21,1.91-0.62,2.31c-0.41,0.4-1.05,0.6-1.91,0.6h-2.41
			c-0.43,0-0.79-0.02-1.08-0.06c-0.29-0.04-0.55-0.11-0.77-0.22c-0.22-0.11-0.44-0.28-0.66-0.49c-0.22-0.21-0.46-0.51-0.74-0.88
			l-10.47-13.69c-0.11-0.13-0.23-0.2-0.37-0.2h-0.25c-0.15,0-0.22,0.09-0.22,0.28v14.65c0,0.41-0.21,0.62-0.62,0.62h-2.95
			c-0.43,0-0.65-0.21-0.65-0.62v-16.1c0-1.14,0.21-1.91,0.62-2.31c0.41-0.4,1.05-0.6,1.91-0.6H255.5z"/>
		
			<pattern  id="SVGID_14_" xlink:href="#New_Pattern_Swatch_2" patternTransform="matrix(0.3717 0 0 0.3717 -4541.5962 -11372.7451)">
		</pattern>
		<path class="st16" d="M297.44,42.92c0.41,0,0.62,0.21,0.62,0.62v2.67c0,0.41-0.21,0.62-0.62,0.62h-14.06
			c-0.54,0-0.93,0.14-1.15,0.42c-0.22,0.28-0.34,0.66-0.34,1.15v0.95c0,1.05,0.49,1.57,1.46,1.57h10.52c1.63,0,2.85,0.42,3.68,1.25
			c0.82,0.83,1.23,2.02,1.23,3.58v2.24c0,1.37-0.4,2.47-1.21,3.31c-0.8,0.84-2.06,1.26-3.76,1.26h-15.54
			c-0.43,0-0.64-0.21-0.64-0.62v-2.67c0-0.41,0.21-0.62,0.64-0.62h14.73c0.54,0,0.93-0.14,1.15-0.42c0.22-0.28,0.34-0.66,0.34-1.15
			v-1.15c0-1.05-0.49-1.57-1.46-1.57h-10.52c-1.63,0-2.85-0.42-3.68-1.25c-0.82-0.83-1.23-2.02-1.23-3.58V47.5
			c0-1.37,0.4-2.47,1.21-3.31c0.8-0.84,2.06-1.26,3.76-1.26H297.44z"/>
	</g>
	<g>
		
			<pattern  id="SVGID_15_" xlink:href="#New_Pattern_Swatch_4" patternTransform="matrix(0.3717 0 0 0.3717 -4541.5962 -11372.7451)">
		</pattern>
		<path class="st17" d="M89.58,71.13h4.89c3.92,0,6.57,2.58,6.57,6.18c0,3.6-2.65,6.18-6.57,6.18h-4.89V71.13z M94.4,82.68
			c3.5,0,5.74-2.22,5.74-5.37c0-3.14-2.24-5.37-5.74-5.37h-3.92v10.73H94.4z"/>
		
			<pattern  id="SVGID_16_" xlink:href="#New_Pattern_Swatch_4" patternTransform="matrix(0.3717 0 0 0.3717 -4541.5962 -11372.7451)">
		</pattern>
		<path class="st18" d="M106.98,71.13h0.9v12.36h-0.9V71.13z"/>
		
			<pattern  id="SVGID_17_" xlink:href="#New_Pattern_Swatch_4" patternTransform="matrix(0.3717 0 0 0.3717 -4541.5962 -11372.7451)">
		</pattern>
		<path class="st19" d="M123.84,77.37h0.86v4.63c-1.11,1.06-2.72,1.59-4.41,1.59c-3.72,0-6.46-2.67-6.46-6.27
			c0-3.6,2.74-6.27,6.48-6.27c1.78,0,3.35,0.56,4.45,1.69l-0.56,0.6c-1.08-1.06-2.37-1.47-3.87-1.47c-3.21,0-5.6,2.33-5.6,5.44
			c0,3.09,2.38,5.44,5.6,5.44c1.31,0,2.51-0.32,3.51-1.13V77.37z"/>
		
			<pattern  id="SVGID_18_" xlink:href="#New_Pattern_Swatch_4" patternTransform="matrix(0.3717 0 0 0.3717 -4541.5962 -11372.7451)">
		</pattern>
		<path class="st20" d="M131.48,71.13h0.9v12.36h-0.9V71.13z"/>
		
			<pattern  id="SVGID_19_" xlink:href="#New_Pattern_Swatch_4" patternTransform="matrix(0.3717 0 0 0.3717 -4541.5962 -11372.7451)">
		</pattern>
		<path class="st21" d="M141.87,71.95h-4.45v-0.81h9.8v0.81h-4.45v11.55h-0.9V71.95z"/>
		
			<pattern  id="SVGID_20_" xlink:href="#New_Pattern_Swatch_4" patternTransform="matrix(0.3717 0 0 0.3717 -4541.5962 -11372.7451)">
		</pattern>
		<path class="st22" d="M159.91,80.01h-7.17l-1.57,3.48h-0.97l5.68-12.36h0.9l5.68,12.36h-0.97L159.91,80.01z M159.58,79.25
			l-3.25-7.13l-3.23,7.13H159.58z"/>
		
			<pattern  id="SVGID_21_" xlink:href="#New_Pattern_Swatch_4" patternTransform="matrix(0.3717 0 0 0.3717 -4541.5962 -11372.7451)">
		</pattern>
		<path class="st23" d="M167.54,71.13h0.9v11.55h7.11v0.81h-8.01V71.13z"/>
		
			<pattern  id="SVGID_22_" xlink:href="#New_Pattern_Swatch_4" patternTransform="matrix(0.3717 0 0 0.3717 -4541.5962 -11372.7451)">
		</pattern>
		<path class="st24" d="M188.05,71.13h0.9v11.55h7.11v0.81h-8.01V71.13z"/>
		
			<pattern  id="SVGID_23_" xlink:href="#New_Pattern_Swatch_4" patternTransform="matrix(0.3717 0 0 0.3717 -4541.5962 -11372.7451)">
		</pattern>
		<path class="st25" d="M209.72,82.68v0.81h-8.53V71.13h8.26v0.81h-7.36v4.87h6.58v0.79h-6.58v5.07H209.72z"/>
		
			<pattern  id="SVGID_24_" xlink:href="#New_Pattern_Swatch_4" patternTransform="matrix(0.3717 0 0 0.3717 -4541.5962 -11372.7451)">
		</pattern>
		<path class="st26" d="M223.47,80.01h-7.17l-1.57,3.48h-0.97l5.68-12.36h0.9l5.68,12.36h-0.97L223.47,80.01z M223.14,79.25
			l-3.25-7.13l-3.23,7.13H223.14z"/>
		
			<pattern  id="SVGID_25_" xlink:href="#New_Pattern_Swatch_4" patternTransform="matrix(0.3717 0 0 0.3717 -4541.5962 -11372.7451)">
		</pattern>
		<path class="st27" d="M239.68,83.49l-2.95-4.13c-0.39,0.05-0.78,0.09-1.2,0.09H232v4.04h-0.9V71.13h4.43
			c3.11,0,4.98,1.55,4.98,4.17c0,1.96-1.06,3.32-2.9,3.87l3.09,4.32H239.68z M235.53,78.65c2.65,0,4.06-1.24,4.06-3.35
			c0-2.14-1.41-3.35-4.06-3.35H232v6.71H235.53z"/>
		
			<pattern  id="SVGID_26_" xlink:href="#New_Pattern_Swatch_4" patternTransform="matrix(0.3717 0 0 0.3717 -4541.5962 -11372.7451)">
		</pattern>
		<path class="st28" d="M256.69,71.13v12.36h-0.74l-8.42-10.73v10.73h-0.9V71.13h0.76l8.4,10.73V71.13H256.69z"/>
		
			<pattern  id="SVGID_27_" xlink:href="#New_Pattern_Swatch_4" patternTransform="matrix(0.3717 0 0 0.3717 -4541.5962 -11372.7451)">
		</pattern>
		<path class="st29" d="M263.82,71.13h0.9v12.36h-0.9V71.13z"/>
		
			<pattern  id="SVGID_28_" xlink:href="#New_Pattern_Swatch_4" patternTransform="matrix(0.3717 0 0 0.3717 -4541.5962 -11372.7451)">
		</pattern>
		<path class="st30" d="M281.92,71.13v12.36h-0.74l-8.42-10.73v10.73h-0.9V71.13h0.76l8.4,10.73V71.13H281.92z"/>
		
			<pattern  id="SVGID_29_" xlink:href="#New_Pattern_Swatch_4" patternTransform="matrix(0.3717 0 0 0.3717 -4541.5962 -11372.7451)">
		</pattern>
		<path class="st31" d="M297.87,77.37h0.86v4.63c-1.11,1.06-2.72,1.59-4.41,1.59c-3.72,0-6.46-2.67-6.46-6.27
			c0-3.6,2.74-6.27,6.48-6.27c1.78,0,3.35,0.56,4.45,1.69l-0.56,0.6c-1.08-1.06-2.37-1.47-3.87-1.47c-3.21,0-5.6,2.33-5.6,5.44
			c0,3.09,2.38,5.44,5.6,5.44c1.31,0,2.51-0.32,3.51-1.13V77.37z"/>
	</g>
</g>
</svg>
