<?xml version="1.0" encoding="utf-8"?>
<!-- Generator: Adobe Illustrator 24.1.3, SVG Export Plug-In . SVG Version: 6.00 Build 0)  -->
<svg version="1.1" id="Layer_1" xmlns="http://www.w3.org/2000/svg" xmlns:xlink="http://www.w3.org/1999/xlink" x="0px" y="0px"
	 viewBox="0 0 300 90" style="enable-background:new 0 0 300 90;" xml:space="preserve">
<style type="text/css">
	.st0{fill:#FFFFFF;}
</style>
<g>
	<path class="st0" d="M37.68,59.72l-9.38-9.17v-2.72c2.13-0.92,3.63-3.03,3.63-5.49c0-3.3-2.68-5.98-5.98-5.98
		c-3.3,0-5.98,2.68-5.98,5.98c0,2.44,1.47,4.54,3.56,5.46v4.76l10.81,10.57c0.46,0.45,1.06,0.68,1.67,0.68
		c0.62,0,1.24-0.24,1.7-0.72C38.63,62.15,38.62,60.64,37.68,59.72z M25.95,39.64c1.49,0,2.7,1.21,2.7,2.7c0,1.39-1.05,2.52-2.4,2.67
		c-0.11-0.02-0.22-0.03-0.34-0.03c-0.11,0-0.21,0.02-0.31,0.03c-1.33-0.17-2.37-1.29-2.37-2.67C23.24,40.85,24.45,39.64,25.95,39.64
		z"/>
	<path class="st0" d="M79.15,47.28l-5.9-11.42c-0.16-9.28-3.87-17.97-10.5-24.5C55.96,4.67,46.98,1.04,37.47,1.2
		C18.55,1.46,2.95,17.06,2.69,35.98C2.43,54.42,16.6,70.08,34.95,71.63c1.41,0.12,2.82-0.36,3.87-1.32
		c1.05-0.96,1.65-2.33,1.65-3.75V52.83c0.03-0.02,0.06-0.04,0.08-0.06l12.25-11.1v-5.48c2.22-0.97,3.77-3.18,3.77-5.75
		c0-3.46-2.81-6.27-6.27-6.27c-3.46,0-6.27,2.81-6.27,6.27c0,2.57,1.55,4.78,3.77,5.75v3.26l-7.33,6.64V24.73c0-0.01,0-0.03,0-0.04
		c2.13-1,3.61-3.17,3.61-5.67c0-3.46-2.81-6.27-6.27-6.27c-3.46,0-6.27,2.81-6.27,6.27c0,2.63,1.63,4.89,3.94,5.82v41.73l-0.09,0.09
		C19.63,65.32,7.47,51.87,7.69,36.05C7.91,19.81,21.3,6.43,37.53,6.2c8.18-0.09,15.88,2.98,21.69,8.72
		c5.82,5.74,9.02,13.39,9.02,21.56v0.61l5.93,11.47h-4.04c-2.7,0-4.89,2.19-4.89,4.89v11.82c0,3.62-2.95,6.57-6.56,6.57l-3.32-0.01
		c-4.22,0-7.65,3.43-7.65,7.65v6.81c0,1.38,1.12,2.5,2.5,2.5c1.38,0,2.5-1.12,2.5-2.5v-6.81c0-1.46,1.19-2.65,2.64-2.65l3.32,0.01
		c6.38,0,11.57-5.19,11.57-11.57V53.55h5.08c1.51,0,2.89-0.77,3.67-2.06C79.79,50.2,79.84,48.63,79.15,47.28z M47.46,30.44
		c0-1.56,1.27-2.84,2.84-2.84s2.84,1.27,2.84,2.84c0,1.56-1.27,2.84-2.84,2.84S47.46,32.01,47.46,30.44z M34.96,19.02
		c0-1.56,1.27-2.84,2.84-2.84c1.56,0,2.84,1.27,2.84,2.84c0,1.56-1.27,2.84-2.84,2.84C36.24,21.85,34.96,20.58,34.96,19.02z"/>
	<g>
		<path class="st0" d="M108.49,10.82c0.41,0,0.61,0.2,0.61,0.61v2.71c0,0.42-0.2,0.64-0.61,0.64H96.18c-0.72,0-1.31,0.06-1.78,0.18
			c-0.47,0.12-0.84,0.32-1.12,0.61c-0.28,0.29-0.48,0.67-0.59,1.15c-0.12,0.48-0.18,1.09-0.18,1.83v3.93c0,0.74,0.06,1.35,0.18,1.84
			c0.12,0.49,0.32,0.88,0.59,1.16c0.28,0.29,0.65,0.49,1.12,0.61c0.47,0.12,1.07,0.18,1.78,0.18h12.31c0.41,0,0.61,0.2,0.61,0.61
			v2.71c0,0.41-0.2,0.61-0.61,0.61H96.02c-1.4,0-2.59-0.13-3.57-0.39c-0.98-0.26-1.78-0.68-2.39-1.26
			c-0.62-0.58-1.07-1.34-1.36-2.27c-0.29-0.93-0.43-2.06-0.43-3.39v-4.76c0-1.33,0.14-2.45,0.43-3.38c0.29-0.92,0.74-1.67,1.36-2.26
			c0.62-0.58,1.42-1.01,2.39-1.27c0.98-0.27,2.17-0.4,3.57-0.4H108.49z"/>
		<path class="st0" d="M125.84,10.82c1.49,0,2.78,0.15,3.85,0.46c1.07,0.3,1.95,0.77,2.63,1.41c0.68,0.64,1.19,1.45,1.51,2.43
			c0.32,0.99,0.48,2.15,0.48,3.5v3.76c0,1.35-0.16,2.51-0.48,3.5c-0.32,0.99-0.83,1.8-1.51,2.43c-0.68,0.64-1.56,1.11-2.63,1.41
			c-1.07,0.3-2.35,0.46-3.85,0.46h-12.95c-0.55,0-0.83-0.28-0.83-0.83V11.65c0-0.55,0.28-0.83,0.83-0.83H125.84z M116.3,25.98
			c0,0.24,0.12,0.36,0.36,0.36h9.08c0.81,0,1.49-0.07,2.05-0.22c0.55-0.15,1-0.39,1.34-0.72c0.34-0.33,0.59-0.77,0.73-1.33
			c0.15-0.55,0.22-1.24,0.22-2.05v-3.04c0-0.81-0.07-1.49-0.22-2.05c-0.15-0.55-0.39-1-0.73-1.33c-0.34-0.33-0.79-0.57-1.34-0.72
			c-0.55-0.15-1.24-0.22-2.05-0.22h-9.08c-0.24,0-0.36,0.13-0.36,0.39V25.98z"/>
		<path class="st0" d="M141.34,10.82c0.41,0,0.61,0.2,0.61,0.61v11.04c0,0.74,0.06,1.35,0.18,1.84c0.12,0.49,0.32,0.88,0.6,1.16
			c0.28,0.29,0.65,0.49,1.12,0.61c0.47,0.12,1.07,0.18,1.78,0.18h11.21c0.41,0,0.61,0.2,0.61,0.61v2.71c0,0.41-0.2,0.61-0.61,0.61
			h-11.37c-1.4,0-2.59-0.13-3.57-0.39c-0.98-0.26-1.78-0.68-2.39-1.26c-0.62-0.58-1.07-1.34-1.36-2.27
			c-0.29-0.93-0.43-2.06-0.43-3.39V11.43c0-0.41,0.21-0.61,0.64-0.61H141.34z"/>
	</g>
	<g>
		<path class="st0" d="M107.72,42.89c0.41,0,0.61,0.2,0.61,0.61v2.63c0,0.41-0.2,0.61-0.61,0.61H93.86c-0.54,0-0.91,0.14-1.13,0.42
			c-0.22,0.28-0.33,0.66-0.33,1.13v0.94c0,1.03,0.48,1.55,1.44,1.55h10.38c1.6,0,2.81,0.41,3.62,1.23c0.81,0.82,1.22,2,1.22,3.53
			v2.21c0,1.35-0.4,2.43-1.19,3.26c-0.79,0.83-2.03,1.25-3.71,1.25H88.82c-0.42,0-0.64-0.2-0.64-0.61v-2.63
			c0-0.41,0.21-0.61,0.64-0.61h14.53c0.54,0,0.91-0.14,1.13-0.42c0.22-0.28,0.33-0.65,0.33-1.13v-1.13c0-1.03-0.48-1.55-1.44-1.55
			H93c-1.6,0-2.81-0.41-3.62-1.23c-0.81-0.82-1.22-2-1.22-3.53V47.4c0-1.35,0.4-2.43,1.19-3.26c0.79-0.83,2.03-1.25,3.71-1.25
			H107.72z"/>
		<path class="st0" d="M128.28,42.89c1.4,0,2.6,0.13,3.58,0.4c0.99,0.27,1.79,0.69,2.41,1.27c0.62,0.58,1.07,1.33,1.34,2.26
			c0.28,0.92,0.42,2.05,0.42,3.38v4.76c0,1.33-0.14,2.46-0.42,3.39c-0.28,0.93-0.72,1.69-1.34,2.27c-0.62,0.58-1.42,1-2.41,1.26
			c-0.99,0.26-2.18,0.39-3.58,0.39h-8.55c-1.4,0-2.59-0.13-3.57-0.39c-0.98-0.26-1.78-0.68-2.39-1.26
			c-0.62-0.58-1.07-1.34-1.36-2.27c-0.29-0.93-0.43-2.06-0.43-3.39V50.2c0-1.33,0.14-2.45,0.43-3.38c0.29-0.92,0.74-1.67,1.36-2.26
			c0.62-0.58,1.42-1.01,2.39-1.27c0.98-0.27,2.17-0.4,3.57-0.4H128.28z M116.21,54.65c0,0.72,0.06,1.32,0.18,1.81
			c0.12,0.49,0.32,0.88,0.59,1.16c0.28,0.29,0.65,0.49,1.12,0.61c0.47,0.12,1.07,0.18,1.78,0.18h8.22c0.72,0,1.31-0.06,1.78-0.18
			c0.47-0.12,0.84-0.32,1.12-0.61c0.28-0.29,0.47-0.67,0.59-1.16c0.12-0.49,0.18-1.09,0.18-1.81V50.5c0-0.72-0.06-1.32-0.18-1.81
			c-0.12-0.49-0.32-0.88-0.59-1.16c-0.28-0.29-0.65-0.49-1.12-0.61c-0.47-0.12-1.07-0.18-1.78-0.18h-8.22
			c-0.72,0-1.31,0.06-1.78,0.18c-0.47,0.12-0.84,0.32-1.12,0.61c-0.28,0.29-0.48,0.67-0.59,1.16c-0.12,0.49-0.18,1.09-0.18,1.81
			V54.65z"/>
		<path class="st0" d="M143.02,42.89c0.41,0,0.61,0.2,0.61,0.61v11.04c0,0.74,0.06,1.35,0.18,1.84c0.12,0.49,0.32,0.88,0.6,1.16
			c0.28,0.29,0.65,0.49,1.12,0.61c0.47,0.12,1.07,0.18,1.78,0.18h11.21c0.41,0,0.61,0.2,0.61,0.61v2.71c0,0.41-0.2,0.61-0.61,0.61
			h-11.37c-1.4,0-2.59-0.13-3.57-0.39c-0.98-0.26-1.78-0.68-2.39-1.26c-0.62-0.58-1.07-1.34-1.36-2.27
			c-0.29-0.93-0.43-2.06-0.43-3.39V43.5c0-0.41,0.21-0.61,0.64-0.61H143.02z"/>
		<path class="st0" d="M165.02,42.89c0.41,0,0.61,0.2,0.61,0.61v11.04c0,0.74,0.06,1.35,0.18,1.84c0.12,0.49,0.32,0.88,0.6,1.16
			c0.28,0.29,0.65,0.49,1.12,0.61c0.47,0.12,1.07,0.18,1.78,0.18h7.66c0.72,0,1.31-0.06,1.78-0.18c0.47-0.12,0.84-0.32,1.12-0.61
			c0.28-0.29,0.47-0.67,0.58-1.16c0.11-0.49,0.17-1.1,0.17-1.84V43.5c0-0.41,0.2-0.61,0.61-0.61h3.02c0.41,0,0.61,0.2,0.61,0.61
			v11.46c0,1.33-0.14,2.46-0.42,3.39c-0.28,0.93-0.72,1.69-1.34,2.27c-0.62,0.58-1.42,1-2.41,1.26c-0.99,0.26-2.18,0.39-3.58,0.39
			h-7.97c-1.4,0-2.59-0.13-3.57-0.39c-0.98-0.26-1.78-0.68-2.39-1.26c-0.62-0.58-1.07-1.34-1.36-2.27
			c-0.29-0.93-0.43-2.06-0.43-3.39V43.5c0-0.41,0.21-0.61,0.64-0.61H165.02z"/>
		<path class="st0" d="M209.24,42.89c0.42,0,0.64,0.2,0.64,0.61v2.71c0,0.42-0.21,0.64-0.64,0.64h-8.69v14.8
			c0,0.41-0.2,0.61-0.61,0.61h-3.02c-0.41,0-0.61-0.2-0.61-0.61v-14.8h-8.69c-0.42,0-0.64-0.21-0.64-0.64V43.5
			c0-0.41,0.21-0.61,0.64-0.61H209.24z"/>
		<path class="st0" d="M215.96,42.89c0.41,0,0.61,0.2,0.61,0.61v18.15c0,0.41-0.2,0.61-0.61,0.61h-2.99c-0.42,0-0.64-0.2-0.64-0.61
			V43.5c0-0.41,0.21-0.61,0.64-0.61H215.96z"/>
		<path class="st0" d="M236.32,42.89c1.4,0,2.6,0.13,3.58,0.4c0.99,0.27,1.79,0.69,2.41,1.27c0.62,0.58,1.07,1.33,1.34,2.26
			c0.28,0.92,0.42,2.05,0.42,3.38v4.76c0,1.33-0.14,2.46-0.42,3.39c-0.28,0.93-0.72,1.69-1.34,2.27c-0.62,0.58-1.42,1-2.41,1.26
			c-0.99,0.26-2.18,0.39-3.58,0.39h-8.55c-1.4,0-2.59-0.13-3.57-0.39c-0.98-0.26-1.78-0.68-2.39-1.26
			c-0.62-0.58-1.07-1.34-1.36-2.27c-0.29-0.93-0.43-2.06-0.43-3.39V50.2c0-1.33,0.14-2.45,0.43-3.38c0.29-0.92,0.74-1.67,1.36-2.26
			c0.62-0.58,1.42-1.01,2.39-1.27c0.98-0.27,2.17-0.4,3.57-0.4H236.32z M224.26,54.65c0,0.72,0.06,1.32,0.18,1.81
			c0.12,0.49,0.32,0.88,0.59,1.16c0.28,0.29,0.65,0.49,1.12,0.61c0.47,0.12,1.07,0.18,1.78,0.18h8.22c0.72,0,1.31-0.06,1.78-0.18
			c0.47-0.12,0.84-0.32,1.12-0.61c0.28-0.29,0.47-0.67,0.59-1.16c0.12-0.49,0.18-1.09,0.18-1.81V50.5c0-0.72-0.06-1.32-0.18-1.81
			c-0.12-0.49-0.32-0.88-0.59-1.16c-0.28-0.29-0.65-0.49-1.12-0.61c-0.47-0.12-1.07-0.18-1.78-0.18h-8.22
			c-0.72,0-1.31,0.06-1.78,0.18c-0.47,0.12-0.84,0.32-1.12,0.61c-0.28,0.29-0.48,0.67-0.59,1.16c-0.12,0.49-0.18,1.09-0.18,1.81
			V54.65z"/>
		<path class="st0" d="M252.43,42.89c0.44,0,0.81,0.02,1.11,0.06s0.55,0.12,0.78,0.23c0.22,0.12,0.43,0.29,0.64,0.5
			c0.2,0.21,0.43,0.49,0.69,0.84l10.29,13.5c0.07,0.13,0.19,0.19,0.36,0.19h0.25c0.15,0,0.22-0.09,0.22-0.28V43.5
			c0-0.41,0.2-0.61,0.61-0.61h2.91c0.41,0,0.61,0.2,0.61,0.61v15.88c0,1.13-0.2,1.89-0.61,2.28c-0.41,0.4-1.03,0.6-1.88,0.6h-2.38
			c-0.42,0-0.78-0.02-1.07-0.06c-0.29-0.04-0.54-0.11-0.76-0.22c-0.22-0.11-0.44-0.27-0.65-0.48c-0.21-0.21-0.46-0.5-0.73-0.87
			l-10.32-13.5c-0.11-0.13-0.23-0.19-0.36-0.19h-0.25c-0.15,0-0.22,0.09-0.22,0.28v14.44c0,0.41-0.2,0.61-0.61,0.61h-2.91
			c-0.42,0-0.64-0.2-0.64-0.61V45.77c0-1.13,0.2-1.89,0.61-2.28c0.41-0.4,1.03-0.6,1.88-0.6H252.43z"/>
		<path class="st0" d="M293.79,42.89c0.41,0,0.61,0.2,0.61,0.61v2.63c0,0.41-0.2,0.61-0.61,0.61h-13.86c-0.54,0-0.91,0.14-1.13,0.42
			c-0.22,0.28-0.33,0.66-0.33,1.13v0.94c0,1.03,0.48,1.55,1.44,1.55h10.38c1.6,0,2.81,0.41,3.62,1.23c0.81,0.82,1.22,2,1.22,3.53
			v2.21c0,1.35-0.4,2.43-1.19,3.26c-0.79,0.83-2.03,1.25-3.71,1.25h-15.33c-0.42,0-0.64-0.2-0.64-0.61v-2.63
			c0-0.41,0.21-0.61,0.64-0.61h14.53c0.54,0,0.91-0.14,1.13-0.42c0.22-0.28,0.33-0.65,0.33-1.13v-1.13c0-1.03-0.48-1.55-1.44-1.55
			h-10.38c-1.6,0-2.81-0.41-3.62-1.23c-0.81-0.82-1.22-2-1.22-3.53V47.4c0-1.35,0.4-2.43,1.19-3.26c0.79-0.83,2.03-1.25,3.71-1.25
			H293.79z"/>
	</g>
	<g>
		<path class="st0" d="M88.8,70.71h4.82c3.86,0,6.48,2.54,6.48,6.09s-2.61,6.09-6.48,6.09H88.8V70.71z M93.55,82.1
			c3.45,0,5.66-2.19,5.66-5.29c0-3.1-2.21-5.29-5.66-5.29h-3.86V82.1H93.55z"/>
		<path class="st0" d="M105.96,70.71h0.89V82.9h-0.89V70.71z"/>
		<path class="st0" d="M122.59,76.86h0.85v4.56c-1.1,1.04-2.68,1.57-4.35,1.57c-3.67,0-6.37-2.63-6.37-6.18s2.7-6.18,6.39-6.18
			c1.76,0,3.31,0.56,4.39,1.67l-0.56,0.59c-1.06-1.04-2.33-1.44-3.81-1.44c-3.17,0-5.52,2.3-5.52,5.36c0,3.05,2.35,5.36,5.52,5.36
			c1.29,0,2.47-0.31,3.46-1.11V76.86z"/>
		<path class="st0" d="M130.12,70.71h0.89V82.9h-0.89V70.71z"/>
		<path class="st0" d="M140.38,71.51h-4.39v-0.8h9.66v0.8h-4.39V82.9h-0.89V71.51z"/>
		<path class="st0" d="M158.16,79.47h-7.07l-1.55,3.43h-0.96l5.61-12.19h0.89l5.61,12.19h-0.96L158.16,79.47z M157.83,78.72
			l-3.2-7.03l-3.19,7.03H157.83z"/>
		<path class="st0" d="M165.68,70.71h0.89V82.1h7.02v0.8h-7.9V70.71z"/>
		<path class="st0" d="M185.91,70.71h0.89V82.1h7.02v0.8h-7.9V70.71z"/>
		<path class="st0" d="M207.29,82.1v0.8h-8.41V70.71h8.15v0.8h-7.26v4.81h6.49v0.78h-6.49v5H207.29z"/>
		<path class="st0" d="M220.84,79.47h-7.07l-1.55,3.43h-0.96l5.61-12.19h0.89l5.61,12.19h-0.96L220.84,79.47z M220.51,78.72
			l-3.2-7.03l-3.19,7.03H220.51z"/>
		<path class="st0" d="M236.82,82.9l-2.91-4.07c-0.38,0.05-0.77,0.09-1.18,0.09h-3.48v3.99h-0.89V70.71h4.37
			c3.06,0,4.91,1.53,4.91,4.11c0,1.93-1.04,3.27-2.86,3.81l3.05,4.26H236.82z M232.73,78.13c2.61,0,4-1.22,4-3.31
			c0-2.11-1.39-3.31-4-3.31h-3.48v6.62H232.73z"/>
		<path class="st0" d="M253.6,70.71V82.9h-0.73l-8.3-10.58V82.9h-0.89V70.71h0.75l8.29,10.59V70.71H253.6z"/>
		<path class="st0" d="M260.63,70.71h0.89V82.9h-0.89V70.71z"/>
		<path class="st0" d="M278.48,70.71V82.9h-0.73l-8.3-10.58V82.9h-0.89V70.71h0.75l8.29,10.59V70.71H278.48z"/>
		<path class="st0" d="M294.21,76.86h0.85v4.56c-1.1,1.04-2.68,1.57-4.35,1.57c-3.67,0-6.37-2.63-6.37-6.18s2.7-6.18,6.39-6.18
			c1.76,0,3.31,0.56,4.39,1.67l-0.56,0.59c-1.06-1.04-2.33-1.44-3.81-1.44c-3.17,0-5.52,2.3-5.52,5.36c0,3.05,2.35,5.36,5.52,5.36
			c1.29,0,2.47-0.31,3.46-1.11V76.86z"/>
	</g>
</g>
</svg>
