<?xml version="1.0" encoding="utf-8"?>
<!-- Generator: Adobe Illustrator 24.1.3, SVG Export Plug-In . SVG Version: 6.00 Build 0)  -->
<svg version="1.1" id="Layer_1" xmlns="http://www.w3.org/2000/svg" xmlns:xlink="http://www.w3.org/1999/xlink" x="0px" y="0px"
	 viewBox="0 0 90 130" style="enable-background:new 0 0 90 130;" xml:space="preserve">
<style type="text/css">
	.st0{fill:#FFFFFF;}
</style>
<g>
	<g>
		<path class="st0" d="M43.51,114.42L21.73,93.13v-6.32c4.95-2.13,8.42-7.04,8.42-12.76c0-7.66-6.23-13.88-13.88-13.88
			c-7.66,0-13.88,6.23-13.88,13.88c0,5.66,3.41,10.53,8.28,12.69v11.05l25.11,24.55c1.08,1.05,2.47,1.58,3.87,1.58
			c1.44,0,2.87-0.56,3.96-1.67C45.74,120.06,45.7,116.56,43.51,114.42z M16.26,67.77c3.46,0,6.28,2.82,6.28,6.28
			c0,3.22-2.44,5.85-5.57,6.21c-0.26-0.04-0.51-0.08-0.78-0.08c-0.24,0-0.48,0.04-0.71,0.07c-3.09-0.39-5.5-3.01-5.5-6.2
			C9.99,70.59,12.8,67.77,16.26,67.77z"/>
		<path class="st0" d="M72.82,31.84c-8.03,0-14.57,6.54-14.57,14.57c0,5.97,3.61,11.11,8.76,13.35v7.57L49.99,82.76V33.14
			c0-0.03-0.01-0.06-0.01-0.1c4.94-2.33,8.38-7.35,8.38-13.17c0-8.03-6.54-14.57-14.57-14.57c-8.03,0-14.57,6.54-14.57,14.57
			c0,6.12,3.79,11.36,9.15,13.51v96.92h11.61v-31.9c0.06-0.05,0.13-0.09,0.19-0.14l28.45-25.78V59.77
			c5.15-2.25,8.76-7.38,8.76-13.35C87.39,38.38,80.85,31.84,72.82,31.84z M43.8,26.46c-3.63,0-6.59-2.96-6.59-6.59
			s2.96-6.59,6.59-6.59c3.63,0,6.59,2.96,6.59,6.59S47.43,26.46,43.8,26.46z M72.82,53c-3.63,0-6.59-2.96-6.59-6.59
			c0-3.63,2.96-6.59,6.59-6.59c3.63,0,6.59,2.96,6.59,6.59C79.41,50.04,76.45,53,72.82,53z"/>
	</g>
</g>
</svg>
