<?xml version="1.0" encoding="utf-8"?>
<!-- Generator: Adobe Illustrator 24.1.3, SVG Export Plug-In . SVG Version: 6.00 Build 0)  -->
<svg version="1.1" id="Layer_1" xmlns="http://www.w3.org/2000/svg" xmlns:xlink="http://www.w3.org/1999/xlink" x="0px" y="0px"
	 viewBox="0 0 25 35" style="enable-background:new 0 0 25 35;" xml:space="preserve">
<style type="text/css">
	.st0{fill:#2376B6;}
</style>
<g>
	<path class="st0" d="M12.33,30.56l-5.92-5.78v-1.72c1.34-0.58,2.29-1.91,2.29-3.47c0-2.08-1.69-3.77-3.77-3.77
		c-2.08,0-3.77,1.69-3.77,3.77c0,1.54,0.93,2.86,2.25,3.45v3l6.82,6.67c0.29,0.29,0.67,0.43,1.05,0.43c0.39,0,0.78-0.15,1.08-0.45
		C12.93,32.09,12.92,31.14,12.33,30.56z M4.93,17.88c0.94,0,1.71,0.77,1.71,1.71c0,0.87-0.66,1.59-1.51,1.69
		c-0.07-0.01-0.14-0.02-0.21-0.02c-0.07,0-0.13,0.01-0.19,0.02c-0.84-0.11-1.49-0.82-1.49-1.68C3.22,18.65,3.99,17.88,4.93,17.88z"
		/>
	<path class="st0" d="M20.29,8.12c-2.18,0-3.96,1.78-3.96,3.96c0,1.62,0.98,3.02,2.38,3.63v2.06l-4.63,4.19V8.48
		c0-0.01,0-0.02,0-0.03c1.34-0.63,2.28-2,2.28-3.58c0-2.18-1.78-3.96-3.96-3.96c-2.18,0-3.96,1.78-3.96,3.96
		c0,1.66,1.03,3.09,2.49,3.67v26.33h3.16v-8.67c0.02-0.01,0.04-0.02,0.05-0.04l7.73-7v-3.46c1.4-0.61,2.38-2.01,2.38-3.63
		C24.25,9.9,22.48,8.12,20.29,8.12z M12.41,6.66c-0.99,0-1.79-0.8-1.79-1.79s0.8-1.79,1.79-1.79c0.99,0,1.79,0.8,1.79,1.79
		S13.39,6.66,12.41,6.66z M20.29,13.87c-0.99,0-1.79-0.8-1.79-1.79c0-0.99,0.8-1.79,1.79-1.79c0.99,0,1.79,0.8,1.79,1.79
		C22.08,13.07,21.28,13.87,20.29,13.87z"/>
</g>
</svg>
