<?xml version="1.0" encoding="utf-8"?>
<!-- Generator: Adobe Illustrator 24.1.3, SVG Export Plug-In . SVG Version: 6.00 Build 0)  -->
<svg version="1.1" id="Layer_1" xmlns="http://www.w3.org/2000/svg" xmlns:xlink="http://www.w3.org/1999/xlink" x="0px" y="0px"
	 viewBox="0 0 220 250" style="enable-background:new 0 0 220 250;" xml:space="preserve">
<style type="text/css">
	.st0{fill:#2376B6;}
	.st1{fill:#DEEAF4;}
</style>
<g>
	<polygon class="st0" points="134.58,235.85 71.35,235.85 71.35,13.19 121.13,13.19 174.94,43.46 195.12,103.33 209.25,140.33 
		185.7,144.37 182.34,186.07 169.56,210.29 143.32,207.6 135.92,218.36 	"/>
	<g>
		<g>
			<path class="st1" d="M100.04,166.79l-26.37-25.77v-7.65c5.99-2.57,10.19-8.53,10.19-15.45c0-9.27-7.54-16.81-16.81-16.81
				c-9.27,0-16.81,7.54-16.81,16.81c0,6.85,4.13,12.75,10.02,15.36v13.37l30.4,29.72c1.3,1.27,2.99,1.91,4.68,1.91
				c1.74,0,3.48-0.67,4.79-2.02C102.73,173.62,102.69,169.38,100.04,166.79z M67.06,110.32c4.19,0,7.6,3.41,7.6,7.6
				c0,3.9-2.96,7.08-6.74,7.51c-0.31-0.04-0.62-0.1-0.95-0.1c-0.3,0-0.58,0.05-0.86,0.09c-3.74-0.47-6.65-3.64-6.65-7.5
				C59.46,113.73,62.87,110.32,67.06,110.32z"/>
			<path class="st1" d="M216.63,131.81l-16.6-32.11c-0.44-26.1-10.89-50.51-29.53-68.89C151.45,12.02,126.2,1.81,99.45,2.25
				C46.27,2.99,2.41,46.85,1.67,100.02C0.95,151.87,40.8,195.9,92.38,200.27c3.97,0.34,7.94-1.02,10.87-3.72
				c2.94-2.7,4.63-6.54,4.63-10.53v-38.61c0.08-0.06,0.16-0.11,0.23-0.17l34.43-31.21v-15.4c6.23-2.72,10.61-8.94,10.61-16.17
				c0-9.72-7.91-17.64-17.64-17.64c-9.72,0-17.64,7.91-17.64,17.64c0,7.23,4.37,13.44,10.61,16.17v9.16l-20.61,18.68V68.4
				c0-0.04-0.01-0.08-0.01-0.12c5.99-2.82,10.15-8.9,10.15-15.94c0-9.72-7.91-17.64-17.64-17.64c-9.72,0-17.64,7.91-17.64,17.64
				c0,7.41,4.59,13.75,11.08,16.36v117.32l-0.26,0.24c-44.27-3.75-78.46-41.54-77.84-86.04c0.63-45.63,38.28-83.28,83.91-83.91
				c22.99-0.26,44.64,8.38,60.99,24.51c16.35,16.13,25.36,37.65,25.36,60.62v1.71l16.67,32.24H191.3c-7.58,0-13.75,6.17-13.75,13.75
				v33.24c0,10.18-8.28,18.46-18.44,18.46l-9.34-0.03c-11.85,0-21.5,9.64-21.5,21.5v19.16c0,3.88,3.15,7.03,7.03,7.03
				c3.88,0,7.03-3.15,7.03-7.03V222.3c0-4.1,3.34-7.44,7.41-7.44l9.34,0.03c17.93,0,32.52-14.59,32.52-32.52v-32.93h14.29
				c4.25,0,8.11-2.17,10.33-5.8C218.43,140.01,218.58,135.59,216.63,131.81z M127.55,84.46c0-4.4,3.58-7.98,7.98-7.98
				c4.4,0,7.97,3.58,7.97,7.98c0,4.4-3.58,7.98-7.97,7.98C131.13,92.44,127.55,88.86,127.55,84.46z M92.41,52.34
				c0-4.4,3.58-7.97,7.98-7.97c4.4,0,7.97,3.58,7.97,7.97s-3.58,7.97-7.97,7.97C95.99,60.31,92.41,56.74,92.41,52.34z"/>
		</g>
	</g>
</g>
</svg>
