<?xml version="1.0" encoding="utf-8"?>
<!-- Generator: Adobe Illustrator 24.1.3, SVG Export Plug-In . SVG Version: 6.00 Build 0)  -->
<svg version="1.1" id="Layer_1" xmlns="http://www.w3.org/2000/svg" xmlns:xlink="http://www.w3.org/1999/xlink" x="0px" y="0px"
	 viewBox="0 0 220 250" style="enable-background:new 0 0 220 250;" xml:space="preserve">
<style type="text/css">
	.st0{fill:#2376B6;}
	.st1{fill:#DEEAF4;}
</style>
<g>
	<polygon class="st0" points="134.6,235.9 69.4,235.9 71.3,13.2 121.1,13.2 174.9,43.5 195.1,103.3 209.3,140.3 185.7,144.4 
		182.3,186.1 169.6,210.3 143.3,207.6 135.9,218.4 	"/>
	<g>
		<g>
			<path class="st1" d="M100,166.8L73.7,141v-7.6c6-2.6,10.2-8.5,10.2-15.4c0-9.3-7.5-16.8-16.8-16.8s-16.8,7.5-16.8,16.8
				c0,6.8,4.1,12.8,10,15.4v13.4l30.4,29.7c1.3,1.3,3,1.9,4.7,1.9c1.7,0,3.5-0.7,4.8-2C102.7,173.6,102.7,169.4,100,166.8z
				 M67.1,110.3c4.2,0,7.6,3.4,7.6,7.6c0,3.9-3,7.1-6.7,7.5c-0.3,0-0.6-0.1-0.9-0.1c-0.3,0-0.6,0.1-0.9,0.1
				c-3.7-0.5-6.7-3.6-6.7-7.5C59.5,113.7,62.9,110.3,67.1,110.3z"/>
			<path class="st1" d="M216.6,131.8L200,99.7c-0.4-26.1-10.9-50.5-29.5-68.9C151.4,12,126.2,1.8,99.4,2.3C46.3,3,2.4,46.8,1.7,100
				c-0.7,51.8,39.1,95.9,90.7,100.3c4,0.3,7.9-1,10.9-3.7c2.9-2.7,4.6-6.5,4.6-10.5v-38.6c0.1-0.1,0.2-0.1,0.2-0.2l34.4-31.2v-15.4
				c6.2-2.7,10.6-8.9,10.6-16.2c0-9.7-7.9-17.6-17.6-17.6c-9.7,0-17.6,7.9-17.6,17.6c0,7.2,4.4,13.4,10.6,16.2v9.2l-20.6,18.7V68.4
				c0,0,0-0.1,0-0.1c6-2.8,10.2-8.9,10.2-15.9c0-9.7-7.9-17.6-17.6-17.6c-9.7,0-17.6,7.9-17.6,17.6c0,7.4,4.6,13.7,11.1,16.4V186
				l-0.3,0.2c-44.3-3.8-78.5-41.5-77.8-86C16.3,54.6,54,16.9,99.6,16.3c23-0.3,44.6,8.4,61,24.5S186,78.5,186,101.4v1.7l16.7,32.2
				h-11.3c-7.6,0-13.8,6.2-13.8,13.8v33.2c0,10.2-8.3,18.5-18.4,18.5l-9.3,0c-11.9,0-21.5,9.6-21.5,21.5v19.2c0,3.9,3.1,7,7,7
				s7-3.1,7-7v-19.2c0-4.1,3.3-7.4,7.4-7.4l9.3,0c17.9,0,32.5-14.6,32.5-32.5v-32.9h14.3c4.3,0,8.1-2.2,10.3-5.8
				C218.4,140,218.6,135.6,216.6,131.8z M127.6,84.5c0-4.4,3.6-8,8-8s8,3.6,8,8s-3.6,8-8,8C131.1,92.4,127.6,88.9,127.6,84.5z
				 M92.4,52.3c0-4.4,3.6-8,8-8s8,3.6,8,8s-3.6,8-8,8C96,60.3,92.4,56.7,92.4,52.3z"/>
		</g>
	</g>
</g>
</svg>
