<?xml version="1.0" encoding="utf-8"?>
<!-- Generator: Adobe Illustrator 24.1.3, SVG Export Plug-In . SVG Version: 6.00 Build 0)  -->
<svg version="1.1" id="Layer_1" xmlns="http://www.w3.org/2000/svg" xmlns:xlink="http://www.w3.org/1999/xlink" x="0px" y="0px"
	 viewBox="0 0 50 55" style="enable-background:new 0 0 50 55;" xml:space="preserve">
<style type="text/css">
	.st0{fill:#A7C8E2;}
</style>
<g>
	<g>
		<path class="st0" d="M23.1,36.23l-5.57-5.44v-1.62c1.26-0.54,2.15-1.8,2.15-3.26c0-1.96-1.59-3.55-3.55-3.55
			c-1.96,0-3.55,1.59-3.55,3.55c0,1.45,0.87,2.69,2.12,3.25v2.82l6.42,6.28c0.28,0.27,0.63,0.4,0.99,0.4c0.37,0,0.73-0.14,1.01-0.43
			C23.67,37.67,23.66,36.77,23.1,36.23z M16.13,24.3c0.89,0,1.61,0.72,1.61,1.61c0,0.82-0.62,1.5-1.42,1.59
			c-0.07-0.01-0.13-0.02-0.2-0.02c-0.06,0-0.12,0.01-0.18,0.02c-0.79-0.1-1.41-0.77-1.41-1.59C14.53,25.02,15.25,24.3,16.13,24.3z"
			/>
		<path class="st0" d="M47.73,28.84l-3.51-6.78c-0.09-5.51-2.3-10.67-6.24-14.55c-4.02-3.97-9.36-6.12-15.01-6.03
			C11.74,1.63,2.48,10.89,2.32,22.12C2.17,33.08,10.59,42.38,21.48,43.3c0.84,0.07,1.68-0.22,2.3-0.79
			c0.62-0.57,0.98-1.38,0.98-2.22v-8.16c0.02-0.01,0.03-0.02,0.05-0.04l7.27-6.59v-3.25c1.32-0.57,2.24-1.89,2.24-3.41
			c0-2.05-1.67-3.72-3.72-3.72c-2.05,0-3.72,1.67-3.72,3.72c0,1.53,0.92,2.84,2.24,3.41v1.94l-4.35,3.94V15.45c0-0.01,0-0.02,0-0.03
			c1.26-0.6,2.14-1.88,2.14-3.37c0-2.05-1.67-3.72-3.72-3.72c-2.05,0-3.72,1.67-3.72,3.72c0,1.56,0.97,2.9,2.34,3.45v24.78
			l-0.05,0.05c-9.35-0.79-16.57-8.77-16.44-18.17c0.13-9.64,8.08-17.59,17.72-17.72c4.86-0.06,9.43,1.77,12.88,5.18
			c3.45,3.41,5.36,7.95,5.36,12.8v0.36l3.52,6.81h-2.4c-1.6,0-2.9,1.3-2.9,2.9v7.02c0,2.15-1.75,3.9-3.89,3.9l-1.97-0.01
			c-2.5,0-4.54,2.04-4.54,4.54V52c0,0.82,0.66,1.48,1.48,1.48c0.82,0,1.48-0.66,1.48-1.48v-4.05c0-0.87,0.7-1.57,1.57-1.57
			l1.97,0.01c3.79,0,6.87-3.08,6.87-6.87v-6.96h3.02c0.9,0,1.71-0.46,2.18-1.23C48.11,30.57,48.14,29.64,47.73,28.84z M28.91,18.84
			c0-0.93,0.76-1.68,1.68-1.68s1.68,0.76,1.68,1.68c0,0.93-0.76,1.68-1.68,1.68S28.91,19.77,28.91,18.84z M21.49,12.05
			c0-0.93,0.76-1.68,1.68-1.68c0.93,0,1.68,0.76,1.68,1.68s-0.76,1.68-1.68,1.68C22.24,13.74,21.49,12.98,21.49,12.05z"/>
	</g>
</g>
</svg>
