<?xml version="1.0" encoding="utf-8"?>
<!-- Generator: Adobe Illustrator 24.1.3, SVG Export Plug-In . SVG Version: 6.00 Build 0)  -->
<svg version="1.1" id="Layer_1" xmlns="http://www.w3.org/2000/svg" xmlns:xlink="http://www.w3.org/1999/xlink" x="0px" y="0px"
	 viewBox="0 0 30 30" style="enable-background:new 0 0 30 30;" xml:space="preserve">
<style type="text/css">
	.st0{fill:#FFFFFF;}
</style>
<g>
	<path class="st0" d="M22.52,0.19l-3.85-0.01c-4.32,0-7.12,2.87-7.12,7.31v3.37H7.68c-0.33,0-0.61,0.27-0.61,0.61v4.88
		c0,0.33,0.27,0.61,0.61,0.61h3.87v12.31c0,0.33,0.27,0.61,0.61,0.61h5.05c0.33,0,0.61-0.27,0.61-0.61V16.95h4.53
		c0.33,0,0.61-0.27,0.61-0.61l0-4.88c0-0.16-0.06-0.31-0.18-0.43s-0.27-0.18-0.43-0.18h-4.53V8c0-1.37,0.33-2.07,2.11-2.07l2.59,0
		c0.33,0,0.6-0.27,0.6-0.61V0.79C23.12,0.46,22.85,0.19,22.52,0.19z"/>
</g>
</svg>
