<?xml version="1.0" encoding="utf-8"?>
<!-- Generator: Adobe Illustrator 24.1.3, SVG Export Plug-In . SVG Version: 6.00 Build 0)  -->
<svg version="1.1" id="Layer_1" xmlns="http://www.w3.org/2000/svg" xmlns:xlink="http://www.w3.org/1999/xlink" x="0px" y="0px"
	 viewBox="0 0 30 30" style="enable-background:new 0 0 30 30;" xml:space="preserve">
<style type="text/css">
	.st0{fill:#FFFFFF;}
</style>
<g>
	<rect x="0.76" y="10.09" class="st0" width="6.63" height="18.93"/>
	<g>
		<path class="st0" d="M4.07,7.25c-1.83,0-3.31-1.48-3.31-3.31c0-1.83,1.48-3.31,3.31-3.31c1.83,0,3.31,1.48,3.31,3.31
			C7.38,5.77,5.9,7.25,4.07,7.25"/>
		<path class="st0" d="M29.15,18.62v10.4h-5.68V19.8c0-2.2-0.24-5.03-3.26-5.03c-3.06,0-3.53,2.4-3.53,4.87v9.38h-5.52V10.09h5.28
			v2.55h0.08c0.79-1.49,2.71-2.55,5.57-2.55c4.82,0,6.46,2.24,6.91,5.81C29.11,16.74,29.16,17.65,29.15,18.62L29.15,18.62z"/>
	</g>
</g>
</svg>
