<?xml version="1.0" encoding="utf-8"?>
<!-- Generator: Adobe Illustrator 24.1.3, SVG Export Plug-In . SVG Version: 6.00 Build 0)  -->
<svg version="1.1" id="Layer_1" xmlns="http://www.w3.org/2000/svg" xmlns:xlink="http://www.w3.org/1999/xlink" x="0px" y="0px"
	 viewBox="0 0 30 30" style="enable-background:new 0 0 30 30;" xml:space="preserve">
<style type="text/css">
	.st0{fill:#FFFFFF;}
</style>
<g>
	<path class="st0" d="M26.89,9.69c0.01,0.25,0.01,0.51,0.01,0.77c0,1.18-0.14,2.39-0.41,3.59c-1.53,6.78-7.33,13.32-16.77,13.32
		c-3.41,0-6.58-0.98-9.26-2.67c0.47,0.05,0.95,0.08,1.44,0.08c2.83,0,5.43-0.95,7.5-2.54c-2.64-0.05-4.87-1.77-5.64-4.13
		c0.37,0.07,0.75,0.11,1.14,0.11c0.55,0,1.09-0.07,1.59-0.21c-2.04-0.4-3.69-1.81-4.43-3.68c-0.26-0.67-0.41-1.39-0.41-2.15v-0.07
		c0.81,0.44,1.75,0.71,2.73,0.74C2.77,11.79,1.7,9.97,1.7,7.91C1.7,6.82,2,5.8,2.51,4.92c2.98,3.59,7.43,5.96,12.44,6.21
		c-0.1-0.44-0.15-0.89-0.15-1.36c0-3.28,2.7-5.94,6.04-5.94c1.74,0,3.31,0.72,4.4,1.88c1.38-0.27,2.67-0.76,3.84-1.44
		c-0.45,1.39-1.41,2.55-2.66,3.29c1.22-0.14,2.38-0.46,3.47-0.93C29.09,7.81,28.06,8.86,26.89,9.69"/>
</g>
</svg>
